<mxfile host="Electron" modified="2023-10-29T21:13:30.311Z" agent="Mozilla/5.0 (X11; Linux x86_64) AppleWebKit/537.36 (KHTML, like Gecko) draw.io/22.0.3 Chrome/114.0.5735.289 Electron/25.8.4 Safari/537.36" etag="NLPj-naZLRWv_Qk8JKzr" version="22.0.3" type="device">
  <diagram name="Seite-1" id="IkRbOobrTIEnetrKYbUn">
    <mxGraphModel dx="1434" dy="839" grid="1" gridSize="10" guides="1" tooltips="1" connect="1" arrows="1" fold="1" page="1" pageScale="1" pageWidth="827" pageHeight="1169" background="none" math="1" shadow="0">
      <root>
        <mxCell id="0" />
        <mxCell id="1" parent="0" />
        <mxCell id="X0aNQnVS1JT75f72bMWA-1" value="Euklidischer Algorithmus" style="shape=umlFrame;whiteSpace=wrap;html=1;pointerEvents=0;recursiveResize=0;container=1;collapsible=0;width=170;fontStyle=1;height=30;" parent="1" vertex="1">
          <mxGeometry x="40" y="30" width="740" height="490" as="geometry" />
        </mxCell>
        <mxCell id="X0aNQnVS1JT75f72bMWA-12" style="edgeStyle=orthogonalEdgeStyle;rounded=0;orthogonalLoop=1;jettySize=auto;html=1;" parent="X0aNQnVS1JT75f72bMWA-1" source="X0aNQnVS1JT75f72bMWA-8" target="X0aNQnVS1JT75f72bMWA-10" edge="1">
          <mxGeometry relative="1" as="geometry" />
        </mxCell>
        <mxCell id="FHPY55vhIlAHaiHR3FId-21" style="edgeStyle=orthogonalEdgeStyle;rounded=0;orthogonalLoop=1;jettySize=auto;html=1;entryX=0.5;entryY=0;entryDx=0;entryDy=0;" parent="X0aNQnVS1JT75f72bMWA-1" source="X0aNQnVS1JT75f72bMWA-15" target="FHPY55vhIlAHaiHR3FId-19" edge="1">
          <mxGeometry relative="1" as="geometry" />
        </mxCell>
        <mxCell id="X0aNQnVS1JT75f72bMWA-15" value="Ergebnis \(= b\)" style="html=1;align=center;verticalAlign=middle;rounded=1;absoluteArcSize=1;arcSize=10;dashed=0;whiteSpace=wrap;fillColor=#fff2cc;strokeColor=#d6b656;" parent="X0aNQnVS1JT75f72bMWA-1" vertex="1">
          <mxGeometry x="80" y="180" width="140" height="40" as="geometry" />
        </mxCell>
        <mxCell id="X0aNQnVS1JT75f72bMWA-16" value="" style="group;fillColor=default;" parent="X0aNQnVS1JT75f72bMWA-1" connectable="0" vertex="1">
          <mxGeometry x="265" y="140" width="60" height="60" as="geometry" />
        </mxCell>
        <mxCell id="X0aNQnVS1JT75f72bMWA-10" value="" style="rhombus;fillColor=#f8cecc;strokeColor=#b85450;" parent="X0aNQnVS1JT75f72bMWA-16" vertex="1">
          <mxGeometry x="15" width="30" height="30" as="geometry" />
        </mxCell>
        <mxCell id="X0aNQnVS1JT75f72bMWA-11" value="$$a = 0$$" style="text;html=1;strokeColor=none;fillColor=none;align=center;verticalAlign=middle;whiteSpace=wrap;rounded=0;" parent="X0aNQnVS1JT75f72bMWA-16" vertex="1">
          <mxGeometry y="30" width="60" height="30" as="geometry" />
        </mxCell>
        <mxCell id="X0aNQnVS1JT75f72bMWA-21" style="edgeStyle=orthogonalEdgeStyle;rounded=0;orthogonalLoop=1;jettySize=auto;html=1;entryX=0.5;entryY=0;entryDx=0;entryDy=0;" parent="X0aNQnVS1JT75f72bMWA-1" source="X0aNQnVS1JT75f72bMWA-18" target="X0aNQnVS1JT75f72bMWA-10" edge="1">
          <mxGeometry relative="1" as="geometry" />
        </mxCell>
        <mxCell id="X0aNQnVS1JT75f72bMWA-18" value="Ergebnis : int" style="fontStyle=0;html=1;whiteSpace=wrap;fillColor=#d5e8d4;strokeColor=#82b366;fillStyle=auto;" parent="X0aNQnVS1JT75f72bMWA-1" vertex="1">
          <mxGeometry x="420" y="90" width="120" height="40" as="geometry" />
        </mxCell>
        <mxCell id="X0aNQnVS1JT75f72bMWA-22" value="[true]" style="edgeStyle=orthogonalEdgeStyle;rounded=0;orthogonalLoop=1;jettySize=auto;html=1;" parent="X0aNQnVS1JT75f72bMWA-1" source="X0aNQnVS1JT75f72bMWA-10" target="X0aNQnVS1JT75f72bMWA-15" edge="1">
          <mxGeometry x="-0.7575" y="-15" relative="1" as="geometry">
            <mxPoint as="offset" />
          </mxGeometry>
        </mxCell>
        <mxCell id="X0aNQnVS1JT75f72bMWA-26" value="" style="group;fillColor=default;" parent="X0aNQnVS1JT75f72bMWA-1" connectable="0" vertex="1">
          <mxGeometry x="360" y="209.97" width="60" height="60" as="geometry" />
        </mxCell>
        <mxCell id="X0aNQnVS1JT75f72bMWA-24" value="" style="rhombus;fillColor=#f8cecc;strokeColor=#b85450;" parent="X0aNQnVS1JT75f72bMWA-26" vertex="1">
          <mxGeometry x="15" width="30" height="30" as="geometry" />
        </mxCell>
        <mxCell id="X0aNQnVS1JT75f72bMWA-25" value="\(b \neq 0\)" style="text;html=1;strokeColor=none;fillColor=none;align=center;verticalAlign=middle;whiteSpace=wrap;rounded=0;" parent="X0aNQnVS1JT75f72bMWA-26" vertex="1">
          <mxGeometry y="30" width="60" height="30" as="geometry" />
        </mxCell>
        <mxCell id="FHPY55vhIlAHaiHR3FId-2" value="[false]" style="edgeStyle=orthogonalEdgeStyle;rounded=0;orthogonalLoop=1;jettySize=auto;html=1;" parent="X0aNQnVS1JT75f72bMWA-1" source="X0aNQnVS1JT75f72bMWA-10" target="X0aNQnVS1JT75f72bMWA-24" edge="1">
          <mxGeometry x="-0.6522" y="15" relative="1" as="geometry">
            <mxPoint as="offset" />
          </mxGeometry>
        </mxCell>
        <mxCell id="FHPY55vhIlAHaiHR3FId-3" value="" style="group;fillColor=default;" parent="X0aNQnVS1JT75f72bMWA-1" connectable="0" vertex="1">
          <mxGeometry x="450" y="289.97" width="60" height="60" as="geometry" />
        </mxCell>
        <mxCell id="FHPY55vhIlAHaiHR3FId-4" value="" style="rhombus;fillColor=#f8cecc;strokeColor=#b85450;" parent="FHPY55vhIlAHaiHR3FId-3" vertex="1">
          <mxGeometry x="15" width="30" height="30" as="geometry" />
        </mxCell>
        <mxCell id="FHPY55vhIlAHaiHR3FId-5" value="$$a &amp;gt; b$$" style="text;html=1;strokeColor=none;fillColor=none;align=center;verticalAlign=middle;whiteSpace=wrap;rounded=0;" parent="FHPY55vhIlAHaiHR3FId-3" vertex="1">
          <mxGeometry y="40" width="60" height="30" as="geometry" />
        </mxCell>
        <mxCell id="FHPY55vhIlAHaiHR3FId-7" value="[true]" style="edgeStyle=orthogonalEdgeStyle;rounded=0;orthogonalLoop=1;jettySize=auto;html=1;entryX=0.5;entryY=0;entryDx=0;entryDy=0;" parent="X0aNQnVS1JT75f72bMWA-1" source="X0aNQnVS1JT75f72bMWA-24" target="FHPY55vhIlAHaiHR3FId-4" edge="1">
          <mxGeometry x="-0.4994" y="15" relative="1" as="geometry">
            <mxPoint as="offset" />
          </mxGeometry>
        </mxCell>
        <mxCell id="FHPY55vhIlAHaiHR3FId-17" style="edgeStyle=orthogonalEdgeStyle;rounded=0;orthogonalLoop=1;jettySize=auto;html=1;" parent="X0aNQnVS1JT75f72bMWA-1" source="FHPY55vhIlAHaiHR3FId-8" edge="1">
          <mxGeometry relative="1" as="geometry">
            <mxPoint x="600" y="410" as="targetPoint" />
          </mxGeometry>
        </mxCell>
        <mxCell id="FHPY55vhIlAHaiHR3FId-8" value="Setze \(a = a-b\)" style="html=1;align=center;verticalAlign=middle;rounded=1;absoluteArcSize=1;arcSize=10;dashed=0;whiteSpace=wrap;fillColor=#fff2cc;strokeColor=#d6b656;" parent="X0aNQnVS1JT75f72bMWA-1" vertex="1">
          <mxGeometry x="530" y="339.97" width="140" height="40" as="geometry" />
        </mxCell>
        <mxCell id="FHPY55vhIlAHaiHR3FId-16" style="edgeStyle=orthogonalEdgeStyle;rounded=0;orthogonalLoop=1;jettySize=auto;html=1;endArrow=none;endFill=0;" parent="X0aNQnVS1JT75f72bMWA-1" source="FHPY55vhIlAHaiHR3FId-9" edge="1">
          <mxGeometry relative="1" as="geometry">
            <mxPoint x="440" y="190" as="targetPoint" />
            <Array as="points">
              <mxPoint x="360" y="410" />
              <mxPoint x="700" y="410" />
              <mxPoint x="700" y="190" />
            </Array>
          </mxGeometry>
        </mxCell>
        <mxCell id="FHPY55vhIlAHaiHR3FId-9" value="Setze \(b = b-a\)" style="html=1;align=center;verticalAlign=middle;rounded=1;absoluteArcSize=1;arcSize=10;dashed=0;whiteSpace=wrap;fillColor=#fff2cc;strokeColor=#d6b656;" parent="X0aNQnVS1JT75f72bMWA-1" vertex="1">
          <mxGeometry x="290" y="339.97" width="140" height="40" as="geometry" />
        </mxCell>
        <mxCell id="FHPY55vhIlAHaiHR3FId-10" value="[true]" style="edgeStyle=orthogonalEdgeStyle;rounded=0;orthogonalLoop=1;jettySize=auto;html=1;entryX=0.5;entryY=0;entryDx=0;entryDy=0;" parent="X0aNQnVS1JT75f72bMWA-1" source="FHPY55vhIlAHaiHR3FId-4" target="FHPY55vhIlAHaiHR3FId-8" edge="1">
          <mxGeometry x="-0.7692" y="15" relative="1" as="geometry">
            <mxPoint as="offset" />
          </mxGeometry>
        </mxCell>
        <mxCell id="FHPY55vhIlAHaiHR3FId-11" value="[false]" style="edgeStyle=orthogonalEdgeStyle;rounded=0;orthogonalLoop=1;jettySize=auto;html=1;" parent="X0aNQnVS1JT75f72bMWA-1" source="FHPY55vhIlAHaiHR3FId-4" target="FHPY55vhIlAHaiHR3FId-9" edge="1">
          <mxGeometry x="-0.6153" y="-15" relative="1" as="geometry">
            <mxPoint as="offset" />
          </mxGeometry>
        </mxCell>
        <mxCell id="FHPY55vhIlAHaiHR3FId-20" style="edgeStyle=orthogonalEdgeStyle;rounded=0;orthogonalLoop=1;jettySize=auto;html=1;entryX=0.5;entryY=0;entryDx=0;entryDy=0;" parent="X0aNQnVS1JT75f72bMWA-1" source="FHPY55vhIlAHaiHR3FId-14" target="FHPY55vhIlAHaiHR3FId-19" edge="1">
          <mxGeometry relative="1" as="geometry" />
        </mxCell>
        <mxCell id="FHPY55vhIlAHaiHR3FId-14" value="Ergebnis \(= a\)" style="html=1;align=center;verticalAlign=middle;rounded=1;absoluteArcSize=1;arcSize=10;dashed=0;whiteSpace=wrap;fillColor=#fff2cc;strokeColor=#d6b656;" parent="X0aNQnVS1JT75f72bMWA-1" vertex="1">
          <mxGeometry x="185" y="260" width="140" height="40" as="geometry" />
        </mxCell>
        <mxCell id="FHPY55vhIlAHaiHR3FId-18" value="[false]" style="edgeStyle=orthogonalEdgeStyle;rounded=0;orthogonalLoop=1;jettySize=auto;html=1;entryX=0.5;entryY=0;entryDx=0;entryDy=0;" parent="X0aNQnVS1JT75f72bMWA-1" source="X0aNQnVS1JT75f72bMWA-24" target="FHPY55vhIlAHaiHR3FId-14" edge="1">
          <mxGeometry x="-0.6771" y="-15" relative="1" as="geometry">
            <mxPoint as="offset" />
          </mxGeometry>
        </mxCell>
        <mxCell id="FHPY55vhIlAHaiHR3FId-24" style="edgeStyle=orthogonalEdgeStyle;rounded=0;orthogonalLoop=1;jettySize=auto;html=1;entryX=0.5;entryY=0;entryDx=0;entryDy=0;" parent="X0aNQnVS1JT75f72bMWA-1" source="FHPY55vhIlAHaiHR3FId-19" target="X0aNQnVS1JT75f72bMWA-7" edge="1">
          <mxGeometry relative="1" as="geometry" />
        </mxCell>
        <mxCell id="FHPY55vhIlAHaiHR3FId-19" value="Ergebnis ausgeben" style="html=1;align=center;verticalAlign=middle;rounded=1;absoluteArcSize=1;arcSize=10;dashed=0;whiteSpace=wrap;fillColor=#fff2cc;strokeColor=#d6b656;" parent="X0aNQnVS1JT75f72bMWA-1" vertex="1">
          <mxGeometry x="80" y="365" width="140" height="40" as="geometry" />
        </mxCell>
        <mxCell id="FHPY55vhIlAHaiHR3FId-23" value="" style="group" parent="X0aNQnVS1JT75f72bMWA-1" vertex="1" connectable="0">
          <mxGeometry x="11" y="420" width="60" height="60" as="geometry" />
        </mxCell>
        <mxCell id="X0aNQnVS1JT75f72bMWA-7" value="" style="ellipse;html=1;shape=endState;fillColor=strokeColor;" parent="FHPY55vhIlAHaiHR3FId-23" vertex="1">
          <mxGeometry x="15" width="30" height="30" as="geometry" />
        </mxCell>
        <mxCell id="FHPY55vhIlAHaiHR3FId-22" value="Ende" style="text;html=1;strokeColor=none;fillColor=none;align=center;verticalAlign=middle;whiteSpace=wrap;rounded=0;" parent="FHPY55vhIlAHaiHR3FId-23" vertex="1">
          <mxGeometry y="30" width="60" height="30" as="geometry" />
        </mxCell>
        <mxCell id="yA3bobq-cNslmJcouG5B-3" value="«precondition» \(a\geq 0 \land b\geq 0\)" style="text;html=1;align=center;verticalAlign=middle;" parent="X0aNQnVS1JT75f72bMWA-1" vertex="1">
          <mxGeometry x="160" width="200" height="25" as="geometry" />
        </mxCell>
        <mxCell id="X0aNQnVS1JT75f72bMWA-17" value="" style="group" parent="X0aNQnVS1JT75f72bMWA-1" connectable="0" vertex="1">
          <mxGeometry x="11" y="60" width="60" height="60" as="geometry" />
        </mxCell>
        <mxCell id="X0aNQnVS1JT75f72bMWA-8" value="" style="ellipse;fillColor=strokeColor;html=1;" parent="X0aNQnVS1JT75f72bMWA-17" vertex="1">
          <mxGeometry x="15" width="30" height="30" as="geometry" />
        </mxCell>
        <mxCell id="X0aNQnVS1JT75f72bMWA-9" value="Start" style="text;html=1;strokeColor=none;fillColor=none;align=center;verticalAlign=middle;whiteSpace=wrap;rounded=0;" parent="X0aNQnVS1JT75f72bMWA-17" vertex="1">
          <mxGeometry y="30" width="60" height="30" as="geometry" />
        </mxCell>
        <mxCell id="bPE0Ug2Al4ywR6LMOwMM-1" value="" style="shape=mxgraph.signs.science.microscope;html=1;pointerEvents=1;fillColor=#000000;strokeColor=none;verticalLabelPosition=bottom;verticalAlign=top;align=center;sketch=0;" vertex="1" parent="X0aNQnVS1JT75f72bMWA-1">
          <mxGeometry x="700" y="428.12" width="40" height="61.88" as="geometry" />
        </mxCell>
        <mxCell id="FHPY55vhIlAHaiHR3FId-15" value="" style="endArrow=classic;html=1;rounded=0;entryX=1;entryY=0;entryDx=0;entryDy=0;" parent="1" target="X0aNQnVS1JT75f72bMWA-24" edge="1">
          <mxGeometry width="50" height="50" relative="1" as="geometry">
            <mxPoint x="480" y="220" as="sourcePoint" />
            <mxPoint x="440" y="300" as="targetPoint" />
          </mxGeometry>
        </mxCell>
        <mxCell id="FHPY55vhIlAHaiHR3FId-25" value="Ergebnis : int" style="fontStyle=1;whiteSpace=wrap;html=1;" parent="1" vertex="1">
          <mxGeometry x="130" y="510" width="120" height="30" as="geometry" />
        </mxCell>
        <mxCell id="FHPY55vhIlAHaiHR3FId-26" style="edgeStyle=orthogonalEdgeStyle;rounded=0;orthogonalLoop=1;jettySize=auto;html=1;entryX=0.5;entryY=0;entryDx=0;entryDy=0;" parent="1" source="FHPY55vhIlAHaiHR3FId-19" target="FHPY55vhIlAHaiHR3FId-25" edge="1">
          <mxGeometry relative="1" as="geometry" />
        </mxCell>
        <mxCell id="X0aNQnVS1JT75f72bMWA-6" value="b : int" style="fontStyle=1;whiteSpace=wrap;html=1;" parent="1" vertex="1">
          <mxGeometry x="550" y="10" width="76" height="30" as="geometry" />
        </mxCell>
        <mxCell id="X0aNQnVS1JT75f72bMWA-14" style="edgeStyle=orthogonalEdgeStyle;rounded=0;orthogonalLoop=1;jettySize=auto;html=1;entryX=0.5;entryY=0;entryDx=0;entryDy=0;exitX=0.5;exitY=1;exitDx=0;exitDy=0;" parent="1" source="X0aNQnVS1JT75f72bMWA-6" target="X0aNQnVS1JT75f72bMWA-10" edge="1">
          <mxGeometry relative="1" as="geometry">
            <mxPoint x="240" y="130" as="targetPoint" />
            <Array as="points">
              <mxPoint x="335" y="80" />
            </Array>
          </mxGeometry>
        </mxCell>
        <mxCell id="X0aNQnVS1JT75f72bMWA-5" value="a : int" style="fontStyle=1;whiteSpace=wrap;html=1;" parent="1" vertex="1">
          <mxGeometry x="460" y="10" width="76" height="30" as="geometry" />
        </mxCell>
        <mxCell id="X0aNQnVS1JT75f72bMWA-13" style="edgeStyle=orthogonalEdgeStyle;rounded=0;orthogonalLoop=1;jettySize=auto;html=1;entryX=0.5;entryY=0;entryDx=0;entryDy=0;exitX=0.5;exitY=1;exitDx=0;exitDy=0;" parent="1" source="X0aNQnVS1JT75f72bMWA-5" target="X0aNQnVS1JT75f72bMWA-10" edge="1">
          <mxGeometry relative="1" as="geometry">
            <mxPoint x="240" y="130" as="targetPoint" />
            <Array as="points">
              <mxPoint x="498" y="80" />
              <mxPoint x="335" y="80" />
            </Array>
          </mxGeometry>
        </mxCell>
      </root>
    </mxGraphModel>
  </diagram>
</mxfile>
